<?xml version="1.0" standalone="no"?>
<!DOCTYPE svg PUBLIC "-//W3C//DTD SVG 20010904//EN"
 "http://www.w3.org/TR/2001/REC-SVG-20010904/DTD/svg10.dtd">
<svg version="1.0" xmlns="http://www.w3.org/2000/svg"
 width="137.000000pt" height="127.000000pt" viewBox="0 0 137.000000 127.000000"
 preserveAspectRatio="xMidYMid meet">
<g transform="translate(0.000000,127.000000) scale(0.100000,-0.100000)"
fill="#FFF" stroke="#FFF" stroke-width="35px">
<path d="M584 1230 c-141 -26 -265 -92 -364 -196 -178 -187 -217 -442 -105
-672 53 -107 175 -230 283 -286 66 -34 102 9 102 121 0 109 18 297 36 376 29
128 99 259 193 360 31 34 41 51 34 58 -18 18 -49 -6 -111 -84 -67 -84 -123
-200 -151 -309 -20 -79 -43 -312 -40 -406 2 -38 -2 -58 -15 -70 -15 -16 -19
-15 -64 8 -73 38 -193 163 -230 240 -112 230 -72 471 107 650 243 242 629 242
872 0 177 -176 219 -414 112 -639 -44 -93 -157 -210 -250 -259 -61 -32 -201
-74 -215 -65 -5 2 -8 105 -8 227 0 274 -1 270 115 281 92 9 125 30 125 80 0
45 -26 64 -160 116 -61 23 -110 47 -110 52 0 5 30 40 66 77 58 60 73 90 44 90
-23 0 -170 -156 -170 -181 0 -11 17 -19 180 -85 85 -34 106 -47 108 -65 5 -29
-8 -36 -86 -44 -88 -9 -108 -18 -132 -57 -18 -31 -20 -51 -20 -280 l0 -248 43
0 c60 0 140 24 227 66 104 51 223 170 274 274 113 232 74 486 -104 674 -80 84
-165 137 -274 172 -89 28 -229 39 -312 24z"/>
</g>
</svg>
